<?xml version="1.0" ?><svg data-name="Layer 3" id="Layer_3" viewBox="0 0 32 32" xmlns="http://www.w3.org/2000/svg"><defs><style>.cls-1{fill:none;stroke:#3c4044;stroke-linecap:round;stroke-linejoin:round;}</style></defs><title/><path class="cls-1" d="M22.74,11.11v3.13H17.82a2.25,2.25,0,0,0-.74.11A2.64,2.64,0,0,0,16,15a2.91,2.91,0,0,0-.88,2.1v3.56h-6L4.05,25.57V11.11A4.16,4.16,0,0,1,5.69,7.76,3.67,3.67,0,0,1,7.93,7H18.86a3.74,3.74,0,0,1,2.6,1.06A4.19,4.19,0,0,1,22.74,11.11Z"/><path class="cls-1" d="M28,17.06V27l-3.48-3.4h-6.7a2.56,2.56,0,0,1-1.89-.84,2.89,2.89,0,0,1-.78-2V17.06A2.91,2.91,0,0,1,16,15a2.64,2.64,0,0,1,1-.61,2.25,2.25,0,0,1,.74-.11h7.51a2.51,2.51,0,0,1,1.54.52A2.83,2.83,0,0,1,28,17.06Z"/><ellipse class="cls-1" cx="9.31" cy="13.19" rx="1.17" ry="1.24"/><ellipse class="cls-1" cx="13.4" cy="13.19" rx="1.17" ry="1.24"/><path class="cls-1" d="M18.65,13.19a1.27,1.27,0,0,1-.54,1.05h-.29a2.25,2.25,0,0,0-.74.11,1.23,1.23,0,0,1-.76-1.16,1.17,1.17,0,1,1,2.33,0Z"/><path class="cls-1" d="M20.41,17.83a1.17,1.17,0,1,1,1.16,1.24"/><line class="cls-1" x1="20.99" x2="20.99" y1="21.46" y2="21.55"/><path class="cls-1" d="M21.57,19.07a.6.6,0,0,0-.58.62v.4"/></svg>